<?xml version="1.0" encoding="UTF-8" standalone="no"?>
<svg width="20px" height="26px" viewBox="0 0 20 26" version="1.1" xmlns="http://www.w3.org/2000/svg" xmlns:xlink="http://www.w3.org/1999/xlink">
    <!-- Generator: Sketch 3.8.3 (29802) - http://www.bohemiancoding.com/sketch -->
    <title>Group</title>
    <desc>Created with Sketch.</desc>
    <defs></defs>
    <g id="Icons" stroke="none" stroke-width="1" fill="none" fill-rule="evenodd">
        <g id="Universal-Promo-Icon-1" transform="translate(-19.000000, -17.000000)">
            <g id="Group" transform="translate(19.000000, 17.000000)">
                <polygon id="Flag" fill="#003B6A" points="0 0 20 0 20 26 10 20.7394064 0 26"></polygon>
                <path d="M11.94,9.188 C11.6973321,8.95399883 11.4611678,8.77200065 11.2315,8.642 C11.0018322,8.51199935 10.7093351,8.447 10.354,8.447 C9.95533134,8.447 9.63900117,8.55966554 9.405,8.785 C9.17099883,9.01033446 9.054,9.31366476 9.054,9.695 C9.054,10.0070016 9.14283244,10.2626657 9.3205,10.462 C9.49816755,10.6613343 9.72133199,10.8368326 9.99,10.9885 C10.258668,11.1401674 10.5511651,11.2874993 10.8675,11.4305 C11.1838349,11.5735007 11.476332,11.7468323 11.745,11.9505 C12.013668,12.1541677 12.2368324,12.4054985 12.4145,12.7045 C12.5921676,13.0035015 12.681,13.3869977 12.681,13.855 C12.681,14.4790031 12.5011685,14.9903313 12.1415,15.389 C11.7818315,15.7876687 11.2900031,16.0303329 10.666,16.117 L10.666,17.43 L9.886,17.43 L9.886,16.143 C9.46999792,16.0996664 9.06700195,15.9848343 8.677,15.7985 C8.28699805,15.6121657 7.95333472,15.3933346 7.676,15.142 L8.17,14.401 C8.44733472,14.6436679 8.75283166,14.8494992 9.0865,15.0185 C9.42016833,15.1875008 9.78633134,15.272 10.185,15.272 C10.6703358,15.272 11.0321655,15.1506679 11.2705,14.908 C11.5088345,14.6653321 11.628,14.3403354 11.628,13.933 C11.628,13.5863316 11.5391676,13.2981678 11.3615,13.0685 C11.1838324,12.8388322 10.960668,12.6395008 10.692,12.4705 C10.423332,12.3014992 10.1308349,12.1433341 9.8145,11.996 C9.49816508,11.8486659 9.20566801,11.6796676 8.937,11.489 C8.66833199,11.2983324 8.44516755,11.0665014 8.2675,10.7935 C8.08983244,10.5204986 8.001,10.1716688 8.001,9.747 C8.001,9.16633043 8.17216495,8.68316859 8.5145,8.2975 C8.85683504,7.9118314 9.31399714,7.67133381 9.886,7.576 L9.886,6.276 L10.666,6.276 L10.666,7.563 C11.0820021,7.60633355 11.4351652,7.71899909 11.7255,7.901 C12.0158348,8.08300091 12.2779988,8.29966541 12.512,8.551 L11.94,9.188 Z" id="$" fill="#FFFFFF"></path>
                <rect id="Flag-Top" fill="#000E45" x="0" y="0" width="20" height="3"></rect>
            </g>
        </g>
    </g>
</svg>